<?xml version="1.0" encoding="UTF-8"?>
<svg version="1.1" xmlns="http://www.w3.org/2000/svg" width="100" height="100">
<path d="M0 0 C30.36 0 60.72 0 92 0 C92 30.36 92 60.72 92 92 C61.64 92 31.28 92 0 92 C0 61.64 0 31.28 0 0 Z " fill="#422C1F" transform="translate(4,4)"/>
<path d="M0 0 C30.36 0 60.72 0 92 0 C92 30.36 92 60.72 92 92 C61.64 92 31.28 92 0 92 C0 61.64 0 31.28 0 0 Z M4 4 C4 31.72 4 59.44 4 88 C31.72 88 59.44 88 88 88 C88 60.28 88 32.56 88 4 C60.28 4 32.56 4 4 4 Z " fill="#F58237" transform="translate(4,4)"/>
<path d="M0 0 C3.3 0 6.6 0 10 0 C10.23074219 0.7528125 10.46148437 1.505625 10.69921875 2.28125 C12.57791093 8.39999448 14.46697325 14.51533616 16.375 20.625 C16.57851074 21.27742676 16.78202148 21.92985352 16.99169922 22.60205078 C18.19853694 26.46300672 19.41965261 30.31909135 20.65234375 34.171875 C20.92836426 35.03731934 21.20438477 35.90276367 21.48876953 36.79443359 C22.03027535 38.49085225 22.57415195 40.18651629 23.12060547 41.88134766 C25 47.77654247 25 47.77654247 25 50 C22.03 50 19.06 50 16 50 C15.01 46.04 14.02 42.08 13 38 C5.08 38.495 5.08 38.495 -3 39 C-4.32 42.63 -5.64 46.26 -7 50 C-9.97 50 -12.94 50 -16 50 C-10.86139832 33.26489539 -5.63418193 16.57645166 0 0 Z " fill="#EE8038" transform="translate(39,25)"/>
<path d="M0 0 C2.64 0 5.28 0 8 0 C8 10.23 8 20.46 8 31 C5.36 31 2.72 31 0 31 C0 20.77 0 10.54 0 0 Z " fill="#F47D2E" transform="translate(69,44)"/>
<path d="M0 0 C2.17186421 2.17186421 2.6793248 3.49976531 3.625 6.375 C3.88539062 7.14585938 4.14578125 7.91671875 4.4140625 8.7109375 C5 11 5 11 5 15 C2.03 15 -0.94 15 -4 15 C-2.91266548 9.87399439 -1.77362508 4.94081272 0 0 Z " fill="#543422" transform="translate(43,39)"/>
<path d="M0 0 C4.55555556 0.55555556 4.55555556 0.55555556 6 2 C6.125 4.5 6.125 4.5 6 7 C5 8 5 8 2 8.125 C-1 8 -1 8 -2 7 C-2.1875 4.5625 -2.1875 4.5625 -2 2 C-1.34 1.34 -0.68 0.68 0 0 Z " fill="#E5772F" transform="translate(71,33)"/>
</svg>
